<?xml version="1.0" encoding="UTF-8" standalone="no"?>
<!DOCTYPE svg PUBLIC "-//W3C//DTD SVG 1.1//EN"
 "http://www.w3.org/Graphics/SVG/1.1/DTD/svg11.dtd">
<!-- Generated by graphviz version 2.38.0 (20140413.2041)
 -->
<!-- Title: Tree Pages: 1 -->
<svg width="360pt" height="119pt"
 viewBox="0.00 0.00 360.00 118.80" xmlns="http://www.w3.org/2000/svg" xmlns:xlink="http://www.w3.org/1999/xlink">
<g id="graph0" class="graph" transform="scale(0.379547 0.379547) rotate(0) translate(4 309)">
<title>Tree</title>
<polygon fill="white" stroke="none" points="-4,4 -4,-309 944.5,-309 944.5,4 -4,4"/>
<!-- 0 -->
<g id="node1" class="node"><title>0</title>
<polygon fill="#f5ccaf" stroke="black" points="534,-305 412,-305 412,-252 534,-252 534,-305"/>
<text text-anchor="middle" x="473" y="-289.8" font-family="Times New Roman,serif" font-size="14.00">LoyalCH &lt;= 0.509</text>
<text text-anchor="middle" x="473" y="-274.8" font-family="Times New Roman,serif" font-size="14.00">samples = 791</text>
<text text-anchor="middle" x="473" y="-259.8" font-family="Times New Roman,serif" font-size="14.00">value = [495, 296]</text>
</g>
<!-- 1 -->
<g id="node2" class="node"><title>1</title>
<polygon fill="#8cc6f0" stroke="black" points="442,-216 320,-216 320,-163 442,-163 442,-216"/>
<text text-anchor="middle" x="381" y="-200.8" font-family="Times New Roman,serif" font-size="14.00">LoyalCH &lt;= 0.282</text>
<text text-anchor="middle" x="381" y="-185.8" font-family="Times New Roman,serif" font-size="14.00">samples = 336</text>
<text text-anchor="middle" x="381" y="-170.8" font-family="Times New Roman,serif" font-size="14.00">value = [99, 237]</text>
</g>
<!-- 0&#45;&gt;1 -->
<g id="edge1" class="edge"><title>0&#45;&gt;1</title>
<path fill="none" stroke="black" d="M445.895,-251.868C436.433,-242.921 425.682,-232.753 415.689,-223.304"/>
<polygon fill="black" stroke="black" points="417.9,-220.578 408.23,-216.25 413.091,-225.664 417.9,-220.578"/>
<text text-anchor="middle" x="408.928" y="-237.54" font-family="Times New Roman,serif" font-size="14.00">True</text>
</g>
<!-- 8 -->
<g id="node9" class="node"><title>8</title>
<polygon fill="#e99456" stroke="black" points="626,-216 504,-216 504,-163 626,-163 626,-216"/>
<text text-anchor="middle" x="565" y="-200.8" font-family="Times New Roman,serif" font-size="14.00">LoyalCH &lt;= 0.705</text>
<text text-anchor="middle" x="565" y="-185.8" font-family="Times New Roman,serif" font-size="14.00">samples = 455</text>
<text text-anchor="middle" x="565" y="-170.8" font-family="Times New Roman,serif" font-size="14.00">value = [396, 59]</text>
</g>
<!-- 0&#45;&gt;8 -->
<g id="edge8" class="edge"><title>0&#45;&gt;8</title>
<path fill="none" stroke="black" d="M500.105,-251.868C509.567,-242.921 520.318,-232.753 530.311,-223.304"/>
<polygon fill="black" stroke="black" points="532.909,-225.664 537.77,-216.25 528.1,-220.578 532.909,-225.664"/>
<text text-anchor="middle" x="537.072" y="-237.54" font-family="Times New Roman,serif" font-size="14.00">False</text>
</g>
<!-- 2 -->
<g id="node3" class="node"><title>2</title>
<polygon fill="#59ade9" stroke="black" points="229,-127 107,-127 107,-74 229,-74 229,-127"/>
<text text-anchor="middle" x="168" y="-111.8" font-family="Times New Roman,serif" font-size="14.00">LoyalCH &lt;= 0.062</text>
<text text-anchor="middle" x="168" y="-96.8" font-family="Times New Roman,serif" font-size="14.00">samples = 157</text>
<text text-anchor="middle" x="168" y="-81.8" font-family="Times New Roman,serif" font-size="14.00">value = [22, 135]</text>
</g>
<!-- 1&#45;&gt;2 -->
<g id="edge2" class="edge"><title>1&#45;&gt;2</title>
<path fill="none" stroke="black" d="M319.963,-163.569C294.562,-153.194 264.914,-141.084 238.583,-130.33"/>
<polygon fill="black" stroke="black" points="239.627,-126.976 229.046,-126.434 236.98,-133.456 239.627,-126.976"/>
</g>
<!-- 5 -->
<g id="node6" class="node"><title>5</title>
<polygon fill="#cee7f9" stroke="black" points="438.5,-127 323.5,-127 323.5,-74 438.5,-74 438.5,-127"/>
<text text-anchor="middle" x="381" y="-111.8" font-family="Times New Roman,serif" font-size="14.00">PriceDiff &lt;= 0.05</text>
<text text-anchor="middle" x="381" y="-96.8" font-family="Times New Roman,serif" font-size="14.00">samples = 179</text>
<text text-anchor="middle" x="381" y="-81.8" font-family="Times New Roman,serif" font-size="14.00">value = [77, 102]</text>
</g>
<!-- 1&#45;&gt;5 -->
<g id="edge5" class="edge"><title>1&#45;&gt;5</title>
<path fill="none" stroke="black" d="M381,-162.868C381,-154.886 381,-145.932 381,-137.384"/>
<polygon fill="black" stroke="black" points="384.5,-137.25 381,-127.25 377.5,-137.25 384.5,-137.25"/>
</g>
<!-- 3 -->
<g id="node4" class="node"><title>3</title>
<polygon fill="#40a0e6" stroke="black" points="98,-38 0,-38 0,-0 98,-0 98,-38"/>
<text text-anchor="middle" x="49" y="-22.8" font-family="Times New Roman,serif" font-size="14.00">samples = 60</text>
<text text-anchor="middle" x="49" y="-7.8" font-family="Times New Roman,serif" font-size="14.00">value = [2, 58]</text>
</g>
<!-- 2&#45;&gt;3 -->
<g id="edge3" class="edge"><title>2&#45;&gt;3</title>
<path fill="none" stroke="black" d="M129.693,-73.9081C115.288,-64.2851 98.9781,-53.3888 84.8098,-43.9234"/>
<polygon fill="black" stroke="black" points="86.5604,-40.8837 76.301,-38.2389 82.6719,-46.7043 86.5604,-40.8837"/>
</g>
<!-- 4 -->
<g id="node5" class="node"><title>4</title>
<polygon fill="#6cb6ec" stroke="black" points="220,-38 116,-38 116,-0 220,-0 220,-38"/>
<text text-anchor="middle" x="168" y="-22.8" font-family="Times New Roman,serif" font-size="14.00">samples = 97</text>
<text text-anchor="middle" x="168" y="-7.8" font-family="Times New Roman,serif" font-size="14.00">value = [20, 77]</text>
</g>
<!-- 2&#45;&gt;4 -->
<g id="edge4" class="edge"><title>2&#45;&gt;4</title>
<path fill="none" stroke="black" d="M168,-73.9081C168,-65.7377 168,-56.6492 168,-48.2981"/>
<polygon fill="black" stroke="black" points="171.5,-48.2389 168,-38.2389 164.5,-48.2389 171.5,-48.2389"/>
</g>
<!-- 6 -->
<g id="node7" class="node"><title>6</title>
<polygon fill="#6ab6ec" stroke="black" points="342,-38 238,-38 238,-0 342,-0 342,-38"/>
<text text-anchor="middle" x="290" y="-22.8" font-family="Times New Roman,serif" font-size="14.00">samples = 70</text>
<text text-anchor="middle" x="290" y="-7.8" font-family="Times New Roman,serif" font-size="14.00">value = [14, 56]</text>
</g>
<!-- 5&#45;&gt;6 -->
<g id="edge6" class="edge"><title>5&#45;&gt;6</title>
<path fill="none" stroke="black" d="M351.706,-73.9081C341.107,-64.6483 329.158,-54.2093 318.617,-45.0009"/>
<polygon fill="black" stroke="black" points="320.711,-42.1823 310.877,-38.2389 316.105,-47.4539 320.711,-42.1823"/>
</g>
<!-- 7 -->
<g id="node8" class="node"><title>7</title>
<polygon fill="#f8ddca" stroke="black" points="464,-38 360,-38 360,-0 464,-0 464,-38"/>
<text text-anchor="middle" x="412" y="-22.8" font-family="Times New Roman,serif" font-size="14.00">samples = 109</text>
<text text-anchor="middle" x="412" y="-7.8" font-family="Times New Roman,serif" font-size="14.00">value = [63, 46]</text>
</g>
<!-- 5&#45;&gt;7 -->
<g id="edge7" class="edge"><title>5&#45;&gt;7</title>
<path fill="none" stroke="black" d="M390.979,-73.9081C394.236,-65.5561 397.867,-56.2448 401.182,-47.7425"/>
<polygon fill="black" stroke="black" points="404.516,-48.8272 404.888,-38.2389 397.994,-46.2841 404.516,-48.8272"/>
</g>
<!-- 9 -->
<g id="node10" class="node"><title>9</title>
<polygon fill="#f0b68d" stroke="black" points="626,-127 504,-127 504,-74 626,-74 626,-127"/>
<text text-anchor="middle" x="565" y="-111.8" font-family="Times New Roman,serif" font-size="14.00">PriceDiff &lt;= 0.265</text>
<text text-anchor="middle" x="565" y="-96.8" font-family="Times New Roman,serif" font-size="14.00">samples = 148</text>
<text text-anchor="middle" x="565" y="-81.8" font-family="Times New Roman,serif" font-size="14.00">value = [104, 44]</text>
</g>
<!-- 8&#45;&gt;9 -->
<g id="edge9" class="edge"><title>8&#45;&gt;9</title>
<path fill="none" stroke="black" d="M565,-162.868C565,-154.886 565,-145.932 565,-137.384"/>
<polygon fill="black" stroke="black" points="568.5,-137.25 565,-127.25 561.5,-137.25 568.5,-137.25"/>
</g>
<!-- 12 -->
<g id="node13" class="node"><title>12</title>
<polygon fill="#e68743" stroke="black" points="825.5,-127 706.5,-127 706.5,-74 825.5,-74 825.5,-127"/>
<text text-anchor="middle" x="766" y="-111.8" font-family="Times New Roman,serif" font-size="14.00">PriceDiff &lt;= &#45;0.39</text>
<text text-anchor="middle" x="766" y="-96.8" font-family="Times New Roman,serif" font-size="14.00">samples = 307</text>
<text text-anchor="middle" x="766" y="-81.8" font-family="Times New Roman,serif" font-size="14.00">value = [292, 15]</text>
</g>
<!-- 8&#45;&gt;12 -->
<g id="edge12" class="edge"><title>8&#45;&gt;12</title>
<path fill="none" stroke="black" d="M623.949,-162.985C647.06,-152.981 673.73,-141.438 697.675,-131.073"/>
<polygon fill="black" stroke="black" points="699.266,-134.199 707.053,-127.015 696.485,-127.775 699.266,-134.199"/>
</g>
<!-- 10 -->
<g id="node11" class="node"><title>10</title>
<polygon fill="#fdf4ed" stroke="black" points="586,-38 482,-38 482,-0 586,-0 586,-38"/>
<text text-anchor="middle" x="534" y="-22.8" font-family="Times New Roman,serif" font-size="14.00">samples = 86</text>
<text text-anchor="middle" x="534" y="-7.8" font-family="Times New Roman,serif" font-size="14.00">value = [45, 41]</text>
</g>
<!-- 9&#45;&gt;10 -->
<g id="edge10" class="edge"><title>9&#45;&gt;10</title>
<path fill="none" stroke="black" d="M555.021,-73.9081C551.764,-65.5561 548.133,-56.2448 544.818,-47.7425"/>
<polygon fill="black" stroke="black" points="548.006,-46.2841 541.112,-38.2389 541.484,-48.8272 548.006,-46.2841"/>
</g>
<!-- 11 -->
<g id="node12" class="node"><title>11</title>
<polygon fill="#e68743" stroke="black" points="702,-38 604,-38 604,-0 702,-0 702,-38"/>
<text text-anchor="middle" x="653" y="-22.8" font-family="Times New Roman,serif" font-size="14.00">samples = 62</text>
<text text-anchor="middle" x="653" y="-7.8" font-family="Times New Roman,serif" font-size="14.00">value = [59, 3]</text>
</g>
<!-- 9&#45;&gt;11 -->
<g id="edge11" class="edge"><title>9&#45;&gt;11</title>
<path fill="none" stroke="black" d="M593.328,-73.9081C603.578,-64.6483 615.133,-54.2093 625.326,-45.0009"/>
<polygon fill="black" stroke="black" points="627.737,-47.5397 632.811,-38.2389 623.044,-42.3454 627.737,-47.5397"/>
</g>
<!-- 13 -->
<g id="node14" class="node"><title>13</title>
<polygon fill="#f1b991" stroke="black" points="811.5,-38 720.5,-38 720.5,-0 811.5,-0 811.5,-38"/>
<text text-anchor="middle" x="766" y="-22.8" font-family="Times New Roman,serif" font-size="14.00">samples = 13</text>
<text text-anchor="middle" x="766" y="-7.8" font-family="Times New Roman,serif" font-size="14.00">value = [9, 4]</text>
</g>
<!-- 12&#45;&gt;13 -->
<g id="edge13" class="edge"><title>12&#45;&gt;13</title>
<path fill="none" stroke="black" d="M766,-73.9081C766,-65.7377 766,-56.6492 766,-48.2981"/>
<polygon fill="black" stroke="black" points="769.5,-48.2389 766,-38.2389 762.5,-48.2389 769.5,-48.2389"/>
</g>
<!-- 14 -->
<g id="node15" class="node"><title>14</title>
<polygon fill="#e68641" stroke="black" points="940.5,-38 829.5,-38 829.5,-0 940.5,-0 940.5,-38"/>
<text text-anchor="middle" x="885" y="-22.8" font-family="Times New Roman,serif" font-size="14.00">samples = 294</text>
<text text-anchor="middle" x="885" y="-7.8" font-family="Times New Roman,serif" font-size="14.00">value = [283, 11]</text>
</g>
<!-- 12&#45;&gt;14 -->
<g id="edge14" class="edge"><title>12&#45;&gt;14</title>
<path fill="none" stroke="black" d="M804.307,-73.9081C818.712,-64.2851 835.022,-53.3888 849.19,-43.9234"/>
<polygon fill="black" stroke="black" points="851.328,-46.7043 857.699,-38.2389 847.44,-40.8837 851.328,-46.7043"/>
</g>
</g>
</svg>
