<?xml version="1.0" encoding="UTF-8" standalone="no"?>
<!DOCTYPE svg PUBLIC "-//W3C//DTD SVG 1.1//EN"
 "http://www.w3.org/Graphics/SVG/1.1/DTD/svg11.dtd">
<!-- Generated by graphviz version 2.38.0 (20140413.2041)
 -->
<!-- Title: Tree Pages: 1 -->
<svg width="360pt" height="206pt"
 viewBox="0.00 0.00 360.00 206.15" xmlns="http://www.w3.org/2000/svg" xmlns:xlink="http://www.w3.org/1999/xlink">
<g id="graph0" class="graph" transform="scale(0.512821 0.512821) rotate(0) translate(4 398)">
<title>Tree</title>
<polygon fill="white" stroke="none" points="-4,4 -4,-398 698,-398 698,4 -4,4"/>
<!-- 0 -->
<g id="node1" class="node"><title>0</title>
<polygon fill="#f6d1b7" stroke="black" points="282,-394 158,-394 158,-341 282,-341 282,-394"/>
<text text-anchor="middle" x="220" y="-378.8" font-family="Times New Roman,serif" font-size="14.00">ShelveLoc &lt;= 0.25</text>
<text text-anchor="middle" x="220" y="-363.8" font-family="Times New Roman,serif" font-size="14.00">samples = 80</text>
<text text-anchor="middle" x="220" y="-348.8" font-family="Times New Roman,serif" font-size="14.00">value = 7.052</text>
</g>
<!-- 1 -->
<g id="node2" class="node"><title>1</title>
<polygon fill="#fcefe5" stroke="black" points="206,-305 106,-305 106,-252 206,-252 206,-305"/>
<text text-anchor="middle" x="156" y="-289.8" font-family="Times New Roman,serif" font-size="14.00">Price &lt;= 0.383</text>
<text text-anchor="middle" x="156" y="-274.8" font-family="Times New Roman,serif" font-size="14.00">samples = 22</text>
<text text-anchor="middle" x="156" y="-259.8" font-family="Times New Roman,serif" font-size="14.00">value = 4.446</text>
</g>
<!-- 0&#45;&gt;1 -->
<g id="edge1" class="edge"><title>0&#45;&gt;1</title>
<path fill="none" stroke="black" d="M201.144,-340.868C194.821,-332.272 187.668,-322.549 180.952,-313.419"/>
<polygon fill="black" stroke="black" points="183.687,-311.231 174.942,-305.25 178.049,-315.379 183.687,-311.231"/>
<text text-anchor="middle" x="171.178" y="-326.265" font-family="Times New Roman,serif" font-size="14.00">True</text>
</g>
<!-- 2 -->
<g id="node5" class="node"><title>2</title>
<polygon fill="#f3c6a5" stroke="black" points="334,-305 234,-305 234,-252 334,-252 334,-305"/>
<text text-anchor="middle" x="284" y="-289.8" font-family="Times New Roman,serif" font-size="14.00">Price &lt;= 0.434</text>
<text text-anchor="middle" x="284" y="-274.8" font-family="Times New Roman,serif" font-size="14.00">samples = 58</text>
<text text-anchor="middle" x="284" y="-259.8" font-family="Times New Roman,serif" font-size="14.00">value = 8.04</text>
</g>
<!-- 0&#45;&gt;2 -->
<g id="edge4" class="edge"><title>0&#45;&gt;2</title>
<path fill="none" stroke="black" d="M238.856,-340.868C245.179,-332.272 252.332,-322.549 259.048,-313.419"/>
<polygon fill="black" stroke="black" points="261.951,-315.379 265.058,-305.25 256.313,-311.231 261.951,-315.379"/>
<text text-anchor="middle" x="268.822" y="-326.265" font-family="Times New Roman,serif" font-size="14.00">False</text>
</g>
<!-- 7 -->
<g id="node3" class="node"><title>7</title>
<polygon fill="#eb9d64" stroke="black" points="92,-208.5 0,-208.5 0,-170.5 92,-170.5 92,-208.5"/>
<text text-anchor="middle" x="46" y="-193.3" font-family="Times New Roman,serif" font-size="14.00">samples = 1</text>
<text text-anchor="middle" x="46" y="-178.3" font-family="Times New Roman,serif" font-size="14.00">value = 11.67</text>
</g>
<!-- 1&#45;&gt;7 -->
<g id="edge2" class="edge"><title>1&#45;&gt;7</title>
<path fill="none" stroke="black" d="M123.591,-251.868C108.864,-240.22 91.5208,-226.503 76.9704,-214.995"/>
<polygon fill="black" stroke="black" points="78.7816,-211.965 68.767,-208.507 74.4392,-217.455 78.7816,-211.965"/>
</g>
<!-- 8 -->
<g id="node4" class="node"><title>8</title>
<polygon fill="#fcf3eb" stroke="black" points="202,-208.5 110,-208.5 110,-170.5 202,-170.5 202,-208.5"/>
<text text-anchor="middle" x="156" y="-193.3" font-family="Times New Roman,serif" font-size="14.00">samples = 21</text>
<text text-anchor="middle" x="156" y="-178.3" font-family="Times New Roman,serif" font-size="14.00">value = 4.102</text>
</g>
<!-- 1&#45;&gt;8 -->
<g id="edge3" class="edge"><title>1&#45;&gt;8</title>
<path fill="none" stroke="black" d="M156,-251.868C156,-241.417 156,-229.301 156,-218.609"/>
<polygon fill="black" stroke="black" points="159.5,-218.507 156,-208.507 152.5,-218.507 159.5,-218.507"/>
</g>
<!-- 3 -->
<g id="node6" class="node"><title>3</title>
<polygon fill="#eda774" stroke="black" points="348,-216 220,-216 220,-163 348,-163 348,-216"/>
<text text-anchor="middle" x="284" y="-200.8" font-family="Times New Roman,serif" font-size="14.00">Education &lt;= 0.188</text>
<text text-anchor="middle" x="284" y="-185.8" font-family="Times New Roman,serif" font-size="14.00">samples = 11</text>
<text text-anchor="middle" x="284" y="-170.8" font-family="Times New Roman,serif" font-size="14.00">value = 10.775</text>
</g>
<!-- 2&#45;&gt;3 -->
<g id="edge5" class="edge"><title>2&#45;&gt;3</title>
<path fill="none" stroke="black" d="M284,-251.868C284,-243.886 284,-234.932 284,-226.384"/>
<polygon fill="black" stroke="black" points="287.5,-226.25 284,-216.25 280.5,-226.25 287.5,-226.25"/>
</g>
<!-- 4 -->
<g id="node9" class="node"><title>4</title>
<polygon fill="#f5cdb1" stroke="black" points="460,-216 366,-216 366,-163 460,-163 460,-216"/>
<text text-anchor="middle" x="413" y="-200.8" font-family="Times New Roman,serif" font-size="14.00">Age &lt;= 0.918</text>
<text text-anchor="middle" x="413" y="-185.8" font-family="Times New Roman,serif" font-size="14.00">samples = 47</text>
<text text-anchor="middle" x="413" y="-170.8" font-family="Times New Roman,serif" font-size="14.00">value = 7.4</text>
</g>
<!-- 2&#45;&gt;4 -->
<g id="edge8" class="edge"><title>2&#45;&gt;4</title>
<path fill="none" stroke="black" d="M322.007,-251.868C335.923,-242.482 351.831,-231.754 366.412,-221.92"/>
<polygon fill="black" stroke="black" points="368.486,-224.743 374.819,-216.25 364.572,-218.939 368.486,-224.743"/>
</g>
<!-- 13 -->
<g id="node7" class="node"><title>13</title>
<polygon fill="#e58139" stroke="black" points="217,-119.5 125,-119.5 125,-81.5 217,-81.5 217,-119.5"/>
<text text-anchor="middle" x="171" y="-104.3" font-family="Times New Roman,serif" font-size="14.00">samples = 2</text>
<text text-anchor="middle" x="171" y="-89.3" font-family="Times New Roman,serif" font-size="14.00">value = 14.09</text>
</g>
<!-- 3&#45;&gt;13 -->
<g id="edge6" class="edge"><title>3&#45;&gt;13</title>
<path fill="none" stroke="black" d="M250.707,-162.868C235.437,-151.111 217.429,-137.246 202.397,-125.673"/>
<polygon fill="black" stroke="black" points="204.447,-122.834 194.388,-119.507 200.176,-128.38 204.447,-122.834"/>
</g>
<!-- 14 -->
<g id="node8" class="node"><title>14</title>
<polygon fill="#efaf81" stroke="black" points="333,-119.5 235,-119.5 235,-81.5 333,-81.5 333,-119.5"/>
<text text-anchor="middle" x="284" y="-104.3" font-family="Times New Roman,serif" font-size="14.00">samples = 9</text>
<text text-anchor="middle" x="284" y="-89.3" font-family="Times New Roman,serif" font-size="14.00">value = 10.039</text>
</g>
<!-- 3&#45;&gt;14 -->
<g id="edge7" class="edge"><title>3&#45;&gt;14</title>
<path fill="none" stroke="black" d="M284,-162.868C284,-152.417 284,-140.301 284,-129.609"/>
<polygon fill="black" stroke="black" points="287.5,-129.507 284,-119.507 280.5,-129.507 287.5,-129.507"/>
</g>
<!-- 5 -->
<g id="node10" class="node"><title>5</title>
<polygon fill="#f3c7a7" stroke="black" points="475,-127 351,-127 351,-74 475,-74 475,-127"/>
<text text-anchor="middle" x="413" y="-111.8" font-family="Times New Roman,serif" font-size="14.00">ShelveLoc &lt;= 0.75</text>
<text text-anchor="middle" x="413" y="-96.8" font-family="Times New Roman,serif" font-size="14.00">samples = 38</text>
<text text-anchor="middle" x="413" y="-81.8" font-family="Times New Roman,serif" font-size="14.00">value = 7.931</text>
</g>
<!-- 4&#45;&gt;5 -->
<g id="edge9" class="edge"><title>4&#45;&gt;5</title>
<path fill="none" stroke="black" d="M413,-162.868C413,-154.886 413,-145.932 413,-137.384"/>
<polygon fill="black" stroke="black" points="416.5,-137.25 413,-127.25 409.5,-137.25 416.5,-137.25"/>
</g>
<!-- 6 -->
<g id="node13" class="node"><title>6</title>
<polygon fill="#fae7d9" stroke="black" points="593,-127 493,-127 493,-74 593,-74 593,-127"/>
<text text-anchor="middle" x="543" y="-111.8" font-family="Times New Roman,serif" font-size="14.00">Price &lt;= 0.563</text>
<text text-anchor="middle" x="543" y="-96.8" font-family="Times New Roman,serif" font-size="14.00">samples = 9</text>
<text text-anchor="middle" x="543" y="-81.8" font-family="Times New Roman,serif" font-size="14.00">value = 5.157</text>
</g>
<!-- 4&#45;&gt;6 -->
<g id="edge12" class="edge"><title>4&#45;&gt;6</title>
<path fill="none" stroke="black" d="M451.301,-162.868C465.325,-153.482 481.357,-142.754 496.051,-132.92"/>
<polygon fill="black" stroke="black" points="498.159,-135.72 504.523,-127.25 494.266,-129.903 498.159,-135.72"/>
</g>
<!-- 9 -->
<g id="node11" class="node"><title>9</title>
<polygon fill="#f0b68c" stroke="black" points="354,-38 262,-38 262,-0 354,-0 354,-38"/>
<text text-anchor="middle" x="308" y="-22.8" font-family="Times New Roman,serif" font-size="14.00">samples = 11</text>
<text text-anchor="middle" x="308" y="-7.8" font-family="Times New Roman,serif" font-size="14.00">value = 9.433</text>
</g>
<!-- 5&#45;&gt;9 -->
<g id="edge10" class="edge"><title>5&#45;&gt;9</title>
<path fill="none" stroke="black" d="M379.199,-73.9081C366.73,-64.4667 352.641,-53.7995 340.307,-44.4606"/>
<polygon fill="black" stroke="black" points="342.174,-41.4849 332.089,-38.2389 337.949,-47.0657 342.174,-41.4849"/>
</g>
<!-- 10 -->
<g id="node12" class="node"><title>10</title>
<polygon fill="#f5ceb2" stroke="black" points="464,-38 372,-38 372,-0 464,-0 464,-38"/>
<text text-anchor="middle" x="418" y="-22.8" font-family="Times New Roman,serif" font-size="14.00">samples = 27</text>
<text text-anchor="middle" x="418" y="-7.8" font-family="Times New Roman,serif" font-size="14.00">value = 7.319</text>
</g>
<!-- 5&#45;&gt;10 -->
<g id="edge11" class="edge"><title>5&#45;&gt;10</title>
<path fill="none" stroke="black" d="M414.61,-73.9081C415.123,-65.7377 415.695,-56.6492 416.22,-48.2981"/>
<polygon fill="black" stroke="black" points="419.718,-48.4389 416.853,-38.2389 412.732,-47.9995 419.718,-48.4389"/>
</g>
<!-- 11 -->
<g id="node14" class="node"><title>11</title>
<polygon fill="#f6d3ba" stroke="black" points="584,-38 492,-38 492,-0 584,-0 584,-38"/>
<text text-anchor="middle" x="538" y="-22.8" font-family="Times New Roman,serif" font-size="14.00">samples = 5</text>
<text text-anchor="middle" x="538" y="-7.8" font-family="Times New Roman,serif" font-size="14.00">value = 6.878</text>
</g>
<!-- 6&#45;&gt;11 -->
<g id="edge13" class="edge"><title>6&#45;&gt;11</title>
<path fill="none" stroke="black" d="M541.39,-73.9081C540.877,-65.7377 540.305,-56.6492 539.78,-48.2981"/>
<polygon fill="black" stroke="black" points="543.268,-47.9995 539.147,-38.2389 536.282,-48.4389 543.268,-47.9995"/>
</g>
<!-- 12 -->
<g id="node15" class="node"><title>12</title>
<polygon fill="#ffffff" stroke="black" points="694,-38 602,-38 602,-0 694,-0 694,-38"/>
<text text-anchor="middle" x="648" y="-22.8" font-family="Times New Roman,serif" font-size="14.00">samples = 4</text>
<text text-anchor="middle" x="648" y="-7.8" font-family="Times New Roman,serif" font-size="14.00">value = 3.005</text>
</g>
<!-- 6&#45;&gt;12 -->
<g id="edge14" class="edge"><title>6&#45;&gt;12</title>
<path fill="none" stroke="black" d="M576.801,-73.9081C589.27,-64.4667 603.359,-53.7995 615.693,-44.4606"/>
<polygon fill="black" stroke="black" points="618.051,-47.0657 623.911,-38.2389 613.826,-41.4849 618.051,-47.0657"/>
</g>
</g>
</svg>
